<?xml version="1.0" encoding="iso-8859-1"?>
<!-- Generator: Adobe Illustrator 21.0.0, SVG Export Plug-In . SVG Version: 6.00 Build 0)  -->
<svg version="1.1" id="Capa_1" xmlns="http://www.w3.org/2000/svg" xmlns:xlink="http://www.w3.org/1999/xlink" x="0px" y="0px"
	 viewBox="0 0 512 512" style="enable-background:new 0 0 512 512;" xml:space="preserve">
<linearGradient id="SVGID_1_" gradientUnits="userSpaceOnUse" x1="74.9807" y1="439.0193" x2="437.0193" y2="76.9807" gradientTransform="matrix(1 0 0 -1 0 514)">
	<stop  offset="0" style="stop-color:#25D9F8"/>
	<stop  offset="1" style="stop-color:#0080AF"/>
</linearGradient>
<circle style="fill:url(#SVGID_1_);" cx="256" cy="256" r="256"/>
<linearGradient id="SVGID_2_" gradientUnits="userSpaceOnUse" x1="416.2777" y1="179.0522" x2="331.7077" y2="94.4823" gradientTransform="matrix(1 0 0 -1 0 514)">
	<stop  offset="0" style="stop-color:#7B7B7B"/>
	<stop  offset="1" style="stop-color:#292929"/>
</linearGradient>
<polygon style="fill:url(#SVGID_2_);" points="382.498,354.595 394,394 354.367,382.726 350.25,364.201 367.746,346.706 "/>
<linearGradient id="SVGID_3_" gradientUnits="userSpaceOnUse" x1="383.9968" y1="211.3332" x2="299.4267" y2="126.7633" gradientTransform="matrix(1 0 0 -1 0 514)">
	<stop  offset="0" style="stop-color:#FFE2B9"/>
	<stop  offset="1" style="stop-color:#FFC473"/>
</linearGradient>
<path style="fill:url(#SVGID_3_);" d="M365.459,285.412c1.882,8.542,14.478,58.744,17.039,69.183l-28.131,28.131
	c-21.737-5.331-63.007-15.739-69.069-17.153l1.144-15.552l31.675-31.675l35.792-36.021L365.459,285.412z"/>
<linearGradient id="SVGID_4_" gradientUnits="userSpaceOnUse" x1="299.6095" y1="295.7305" x2="215.0395" y2="211.1605" gradientTransform="matrix(1 0 0 -1 0 514)">
	<stop  offset="0" style="stop-color:#FFD400"/>
	<stop  offset="1" style="stop-color:#FF9F00"/>
</linearGradient>
<polygon style="fill:url(#SVGID_4_);" points="358.14,278.093 365.459,285.412 285.298,365.573 163.741,244.017 163.627,221.261 
	223.319,161.568 243.788,163.97 "/>
<linearGradient id="SVGID_5_" gradientUnits="userSpaceOnUse" x1="221.6212" y1="373.7188" x2="137.0512" y2="289.1388" gradientTransform="matrix(1 0 0 -1 0 514)">
	<stop  offset="0" style="stop-color:#7B7B7B"/>
	<stop  offset="1" style="stop-color:#292929"/>
</linearGradient>
<path style="fill:url(#SVGID_5_);" d="M158.023,158.252L118,198.276l45.741,45.741l80.047-80.047L198.047,118L158.023,158.252z"/>
<g>
</g>
<g>
</g>
<g>
</g>
<g>
</g>
<g>
</g>
<g>
</g>
<g>
</g>
<g>
</g>
<g>
</g>
<g>
</g>
<g>
</g>
<g>
</g>
<g>
</g>
<g>
</g>
<g>
</g>
</svg>
