<?xml version="1.0" encoding="UTF-8" standalone="no"?>
<svg
   xmlns:dc="http://purl.org/dc/elements/1.1/"
   xmlns:cc="http://creativecommons.org/ns#"
   xmlns:rdf="http://www.w3.org/1999/02/22-rdf-syntax-ns#"
   xmlns:svg="http://www.w3.org/2000/svg"
   xmlns="http://www.w3.org/2000/svg"
   viewBox="0 0 513.58936 118.38867"
   height="118.38867"
   width="513.58936"
   xml:space="preserve"
   id="svg2"
   version="1.1"><metadata
     id="metadata8"><rdf:RDF><cc:Work
         rdf:about=""><dc:format>image/svg+xml</dc:format><dc:type
           rdf:resource="http://purl.org/dc/dcmitype/StillImage" /></cc:Work></rdf:RDF></metadata><defs
     id="defs6"><clipPath
       id="clipPath18"
       clipPathUnits="userSpaceOnUse"><path
         id="path16"
         d="M 0,88.792 H 385.192 V 0 H 0 Z" /></clipPath></defs><g
     transform="matrix(1.3333333,0,0,-1.3333333,0,118.38867)"
     id="g10"><g
       id="g12"><g
         clip-path="url(#clipPath18)"
         id="g14"><g
           transform="translate(139.0825,36.0879)"
           id="g20"><path
             id="path22"
             style="fill:#1d1d1b;fill-opacity:1;fill-rule:nonzero;stroke:none"
             d="m 0,0 c -0.789,1.071 -1.818,1.853 -3.086,2.347 -1.268,0.492 -2.511,0.741 -3.719,0.741 -1.55,0 -2.96,-0.282 -4.226,-0.849 -1.268,-0.563 -2.363,-1.339 -3.278,-2.322 -0.915,-0.989 -1.621,-2.144 -2.112,-3.467 -0.492,-1.322 -0.739,-2.761 -0.739,-4.312 0,-1.634 0.239,-3.126 0.719,-4.48 0.479,-1.349 1.162,-2.514 2.049,-3.485 0.888,-0.973 1.952,-1.73 3.192,-2.262 1.238,-0.536 2.633,-0.804 4.183,-0.804 1.606,0 3.028,0.318 4.269,0.951 1.24,0.635 2.239,1.475 3,2.516 l 4.271,-3 c -1.326,-1.665 -2.944,-2.953 -4.861,-3.871 -1.916,-0.912 -4.155,-1.371 -6.722,-1.371 -2.339,0 -4.488,0.386 -6.444,1.162 -1.959,0.775 -3.641,1.859 -5.051,3.255 -1.409,1.395 -2.508,3.057 -3.295,4.987 -0.792,1.932 -1.185,4.062 -1.185,6.402 0,2.396 0.413,4.559 1.245,6.49 0.832,1.929 1.972,3.57 3.425,4.924 1.452,1.352 3.161,2.393 5.136,3.127 1.971,0.731 4.112,1.099 6.424,1.099 0.958,0 1.959,-0.093 3,-0.277 C -2.763,7.319 -1.762,7.037 -0.802,6.659 0.154,6.278 1.057,5.804 1.901,5.242 2.746,4.679 3.464,4.001 4.057,3.212 Z" /></g><g
           transform="translate(148.0029,23.4102)"
           id="g24"><path
             id="path26"
             style="fill:#1d1d1b;fill-opacity:1;fill-rule:nonzero;stroke:none"
             d="m 0,0 c 0,-0.792 0.116,-1.581 0.358,-2.367 0.237,-0.789 0.598,-1.495 1.077,-2.115 0.479,-0.621 1.084,-1.127 1.815,-1.521 0.734,-0.393 1.609,-0.59 2.623,-0.59 1.016,0 1.888,0.197 2.619,0.59 0.731,0.394 1.339,0.9 1.818,1.521 0.482,0.62 0.839,1.326 1.079,2.115 0.239,0.786 0.358,1.575 0.358,2.367 0,0.787 -0.119,1.568 -0.358,2.345 -0.24,0.777 -0.597,1.472 -1.079,2.09 C 9.831,5.058 9.223,5.557 8.492,5.938 7.761,6.319 6.889,6.508 5.873,6.508 4.859,6.508 3.984,6.319 3.25,5.938 2.519,5.557 1.914,5.058 1.435,4.435 0.956,3.817 0.595,3.122 0.358,2.345 0.116,1.568 0,0.787 0,0 m -5.159,0 c 0,1.604 0.288,3.063 0.868,4.375 0.575,1.308 1.356,2.428 2.345,3.358 0.983,0.931 2.155,1.646 3.509,2.156 1.352,0.507 2.789,0.761 4.31,0.761 1.52,0 2.957,-0.254 4.311,-0.761 1.352,-0.51 2.521,-1.225 3.507,-2.156 0.989,-0.93 1.767,-2.05 2.345,-3.358 0.58,-1.312 0.867,-2.771 0.867,-4.375 0,-1.608 -0.287,-3.071 -0.867,-4.397 -0.578,-1.324 -1.356,-2.458 -2.345,-3.404 -0.986,-0.943 -2.155,-1.681 -3.507,-2.219 -1.354,-0.532 -2.791,-0.801 -4.311,-0.801 -1.521,0 -2.958,0.269 -4.31,0.801 -1.354,0.538 -2.526,1.276 -3.509,2.219 -0.989,0.946 -1.77,2.08 -2.345,3.404 -0.58,1.326 -0.868,2.789 -0.868,4.397" /></g><path
           id="path28"
           style="fill:#1d1d1b;fill-opacity:1;fill-rule:nonzero;stroke:none"
           d="m 167.781,45.134 h 5.073 V 13.178 h -5.073 z" /><path
           id="path30"
           style="fill:#1d1d1b;fill-opacity:1;fill-rule:nonzero;stroke:none"
           d="m 176.994,45.134 h 5.073 V 13.178 h -5.073 z" /><g
           transform="translate(200.4097,25.3545)"
           id="g32"><path
             id="path34"
             style="fill:#1d1d1b;fill-opacity:1;fill-rule:nonzero;stroke:none"
             d="M 0,0 C 0,0.646 -0.094,1.268 -0.275,1.855 -0.459,2.451 -0.749,2.973 -1.143,3.421 -1.536,3.873 -2.037,4.23 -2.643,4.5 -3.248,4.768 -3.961,4.901 -4.778,4.901 -6.299,4.901 -7.587,4.445 -8.644,3.53 -9.7,2.612 -10.285,1.437 -10.398,0 Z M -2.156,11.664 H -6.13 l -5.958,6.084 h 5.747 z M 5.07,-2.284 v -0.674 c 0,-0.227 -0.015,-0.453 -0.04,-0.678 h -15.428 c 0.055,-0.734 0.247,-1.402 0.572,-2.007 0.323,-0.608 0.751,-1.127 1.286,-1.566 0.537,-0.436 1.144,-0.779 1.818,-1.033 0.678,-0.255 1.381,-0.381 2.116,-0.381 1.265,0 2.336,0.231 3.211,0.698 0.873,0.464 1.594,1.102 2.156,1.919 l 3.382,-2.703 c -2.002,-2.705 -4.908,-4.057 -8.709,-4.057 -1.579,0 -3.029,0.247 -4.352,0.739 -1.327,0.492 -2.474,1.193 -3.444,2.092 -0.974,0.904 -1.735,2.01 -2.285,3.316 -0.549,1.314 -0.822,2.799 -0.822,4.461 0,1.636 0.273,3.121 0.822,4.46 0.55,1.339 1.306,2.478 2.262,3.424 0.958,0.943 2.093,1.676 3.401,2.198 1.311,0.52 2.728,0.782 4.251,0.782 1.407,0 2.708,-0.232 3.908,-0.698 C 0.373,7.544 1.409,6.853 2.281,5.937 3.154,5.02 3.837,3.88 4.329,2.514 4.825,1.147 5.07,-0.451 5.07,-2.284" /></g><g
           transform="translate(218.0767,29.918)"
           id="g36"><path
             id="path38"
             style="fill:#1d1d1b;fill-opacity:1;fill-rule:nonzero;stroke:none"
             d="m 0,0 c -0.931,0 -1.755,-0.169 -2.477,-0.507 -0.715,-0.338 -1.32,-0.791 -1.815,-1.367 -0.494,-0.577 -0.872,-1.26 -1.14,-2.044 -0.269,-0.787 -0.403,-1.629 -0.403,-2.529 0,-0.812 0.134,-1.599 0.403,-2.361 0.268,-0.755 0.646,-1.436 1.14,-2.039 0.495,-0.605 1.1,-1.09 1.815,-1.455 0.722,-0.365 1.532,-0.547 2.434,-0.547 0.931,0 1.768,0.174 2.514,0.527 0.746,0.35 1.382,0.822 1.901,1.412 0.522,0.588 0.923,1.27 1.205,2.04 0.282,0.774 0.424,1.583 0.424,2.423 0,0.872 -0.142,1.702 -0.424,2.489 C 5.295,-3.174 4.894,-2.486 4.372,-1.896 3.853,-1.309 3.225,-0.845 2.493,-0.507 1.76,-0.169 0.928,0 0,0 m 10.821,3.55 v -18.471 c 0,-1.828 -0.229,-3.487 -0.68,-4.965 -0.45,-1.48 -1.145,-2.733 -2.09,-3.761 -0.947,-1.03 -2.136,-1.827 -3.573,-2.388 -1.435,-0.566 -3.142,-0.845 -5.114,-0.845 -0.816,0 -1.684,0.068 -2.596,0.209 -0.918,0.144 -1.821,0.354 -2.708,0.636 -0.888,0.282 -1.741,0.635 -2.557,1.054 -0.817,0.425 -1.548,0.907 -2.198,1.437 l 2.919,3.933 c 0.983,-0.93 2.097,-1.642 3.339,-2.136 1.24,-0.494 2.491,-0.736 3.758,-0.736 1.213,0 2.237,0.174 3.064,0.527 0.832,0.353 1.493,0.842 1.987,1.465 0.494,0.62 0.847,1.356 1.059,2.206 0.212,0.849 0.315,1.78 0.315,2.802 v 1.479 H 5.663 c -0.734,-0.995 -1.67,-1.757 -2.811,-2.281 -1.143,-0.527 -2.418,-0.792 -3.826,-0.792 -1.52,0 -2.902,0.282 -4.139,0.848 -1.241,0.561 -2.292,1.32 -3.153,2.284 -0.856,0.955 -1.527,2.077 -2.006,3.358 -0.479,1.28 -0.716,2.64 -0.716,4.079 0,1.463 0.232,2.845 0.696,4.14 0.464,1.299 1.127,2.421 1.986,3.384 0.861,0.956 1.902,1.717 3.127,2.282 1.225,0.562 2.6,0.845 4.119,0.845 1.438,0 2.78,-0.295 4.02,-0.891 C 4.195,2.663 5.184,1.747 5.915,0.507 H 6.001 V 3.55 Z" /></g><g
           transform="translate(247.1528,25.3545)"
           id="g40"><path
             id="path42"
             style="fill:#1d1d1b;fill-opacity:1;fill-rule:nonzero;stroke:none"
             d="M 0,0 C 0,0.646 -0.091,1.268 -0.272,1.855 -0.459,2.451 -0.746,2.973 -1.14,3.421 -1.536,3.873 -2.035,4.23 -2.643,4.5 -3.248,4.768 -3.959,4.901 -4.775,4.901 -6.296,4.901 -7.584,4.445 -8.644,3.53 -9.697,2.612 -10.285,1.437 -10.398,0 Z m 5.072,-2.284 v -0.674 c 0,-0.227 -0.014,-0.453 -0.04,-0.678 h -15.43 c 0.055,-0.734 0.247,-1.402 0.572,-2.007 0.323,-0.608 0.754,-1.127 1.289,-1.566 0.534,-0.436 1.141,-0.779 1.815,-1.033 0.681,-0.255 1.381,-0.381 2.118,-0.381 1.265,0 2.334,0.231 3.212,0.698 0.87,0.464 1.591,1.102 2.154,1.919 l 3.381,-2.703 c -2,-2.705 -4.905,-4.057 -8.706,-4.057 -1.58,0 -3.032,0.247 -4.353,0.739 -1.326,0.492 -2.476,1.193 -3.446,2.092 -0.971,0.904 -1.733,2.01 -2.283,3.316 -0.548,1.314 -0.821,2.799 -0.821,4.461 0,1.636 0.273,3.121 0.821,4.46 0.55,1.339 1.304,2.478 2.262,3.424 0.956,0.943 2.093,1.676 3.402,2.198 1.311,0.52 2.728,0.782 4.249,0.782 1.406,0 2.71,-0.232 3.91,-0.698 C 0.375,7.544 1.409,6.853 2.284,5.937 3.156,5.02 3.84,3.88 4.331,2.514 4.826,1.147 5.072,-0.451 5.072,-2.284" /></g><g
           transform="translate(267.3989,23.4102)"
           id="g44"><path
             id="path46"
             style="fill:#1d1d1b;fill-opacity:1;fill-rule:nonzero;stroke:none"
             d="m 0,0 c 0,-0.792 0.116,-1.581 0.358,-2.367 0.24,-0.789 0.598,-1.495 1.079,-2.115 0.479,-0.621 1.082,-1.127 1.816,-1.521 0.733,-0.393 1.593,-0.59 2.579,-0.59 0.931,0 1.763,0.187 2.493,0.57 0.732,0.38 1.363,0.879 1.882,1.5 0.522,0.618 0.915,1.316 1.185,2.09 0.267,0.774 0.398,1.561 0.398,2.35 0,0.784 -0.131,1.576 -0.398,2.365 -0.27,0.787 -0.663,1.49 -1.185,2.113 C 9.688,5.015 9.057,5.522 8.325,5.915 7.595,6.311 6.763,6.508 5.832,6.508 4.846,6.508 3.986,6.319 3.253,5.938 2.519,5.557 1.916,5.058 1.437,4.435 0.956,3.817 0.598,3.122 0.358,2.345 0.116,1.568 0,0.787 0,0 m 16.696,-10.231 h -4.82 v 3.043 H 11.79 c -0.701,-1.183 -1.682,-2.085 -2.935,-2.703 -1.255,-0.623 -2.599,-0.93 -4.039,-0.93 -1.548,0 -2.935,0.29 -4.163,0.867 -1.222,0.577 -2.266,1.351 -3.129,2.322 -0.857,0.976 -1.518,2.115 -1.982,3.427 -0.469,1.309 -0.7,2.71 -0.7,4.205 0,1.493 0.239,2.89 0.719,4.183 0.481,1.296 1.154,2.423 2.029,3.381 0.872,0.958 1.916,1.712 3.126,2.262 1.213,0.547 2.537,0.824 3.973,0.824 0.934,0 1.76,-0.106 2.497,-0.317 C 7.917,10.124 8.558,9.858 9.107,9.551 9.657,9.241 10.128,8.9 10.524,8.535 10.918,8.169 11.24,7.816 11.497,7.479 h 0.126 v 14.245 h 5.073 z" /></g><g
           transform="translate(289.8394,43.1021)"
           id="g48"><path
             id="path50"
             style="fill:#1d1d1b;fill-opacity:1;fill-rule:nonzero;stroke:none"
             d="M 0,0 H 4.903 L 1.311,-11.157 h -4.266 z" /></g><g
           transform="translate(311.8198,24.5928)"
           id="g52"><path
             id="path54"
             style="fill:#1d1d1b;fill-opacity:1;fill-rule:nonzero;stroke:none"
             d="M 0,0 -4.608,12.171 -9.299,0 Z m -6.762,18.509 h 4.607 L 10.736,-11.414 H 4.649 l -2.788,6.851 h -12.98 l -2.702,-6.851 h -5.961 z" /></g><path
           id="path56"
           style="fill:#1d1d1b;fill-opacity:1;fill-rule:nonzero;stroke:none"
           d="m 323.232,45.134 h 5.073 V 13.178 h -5.073 z" /><g
           transform="translate(356.5767,34.0605)"
           id="g58"><path
             id="path60"
             style="fill:#1d1d1b;fill-opacity:1;fill-rule:nonzero;stroke:none"
             d="M 0,0 C 1.323,0 2.458,-0.232 3.401,-0.698 4.347,-1.162 5.121,-1.775 5.726,-2.537 6.334,-3.298 6.777,-4.17 7.058,-5.154 7.34,-6.142 7.48,-7.156 7.48,-8.202 v -12.68 H 2.41 v 11.245 c 0,0.59 -0.043,1.21 -0.128,1.859 -0.084,0.648 -0.267,1.233 -0.55,1.755 -0.28,0.522 -0.666,0.95 -1.16,1.288 -0.494,0.338 -1.149,0.509 -1.967,0.509 -0.789,0 -1.464,-0.171 -2.027,-0.509 -0.564,-0.338 -1.031,-0.777 -1.396,-1.309 -0.366,-0.537 -0.633,-1.134 -0.802,-1.795 -0.169,-0.666 -0.255,-1.318 -0.255,-1.967 v -11.076 h -5.07 v 12.259 c 0,1.268 -0.303,2.32 -0.908,3.149 -0.608,0.829 -1.558,1.248 -2.854,1.248 -0.762,0 -1.425,-0.164 -1.987,-0.486 -0.565,-0.326 -1.021,-0.742 -1.374,-1.248 -0.353,-0.507 -0.622,-1.095 -0.802,-1.755 -0.184,-0.661 -0.275,-1.332 -0.275,-2.008 v -11.159 h -5.073 v 20.289 h 4.819 v -3.255 h 0.083 c 0.227,0.507 0.529,0.986 0.91,1.44 0.381,0.446 0.83,0.857 1.351,1.223 0.523,0.368 1.122,0.658 1.798,0.867 0.676,0.212 1.422,0.318 2.239,0.318 1.579,0 2.89,-0.353 3.931,-1.057 1.041,-0.706 1.846,-1.633 2.41,-2.791 0.676,1.241 1.576,2.189 2.706,2.854 C -2.847,-0.333 -1.521,0 0,0" /></g><g
           transform="translate(380.3735,22.4375)"
           id="g62"><path
             id="path64"
             style="fill:#1d1d1b;fill-opacity:1;fill-rule:nonzero;stroke:none"
             d="M 0,0 H -1.143 C -1.96,0 -2.816,-0.036 -3.72,-0.106 -4.622,-0.177 -5.454,-0.331 -6.213,-0.573 -6.975,-0.812 -7.607,-1.15 -8.116,-1.586 c -0.505,-0.436 -0.76,-1.031 -0.76,-1.796 0,-0.478 0.104,-0.88 0.315,-1.205 0.212,-0.325 0.49,-0.582 0.825,-0.781 0.34,-0.199 0.718,-0.338 1.142,-0.424 0.424,-0.086 0.848,-0.123 1.269,-0.123 1.747,0 3.068,0.464 3.971,1.392 C -0.452,-3.594 0,-2.325 0,-0.719 Z m 0.083,-6.68 h -0.126 c -0.507,-0.899 -1.326,-1.641 -2.451,-2.216 -1.127,-0.577 -2.41,-0.867 -3.845,-0.867 -0.819,0 -1.672,0.104 -2.559,0.318 -0.888,0.209 -1.705,0.562 -2.451,1.053 -0.747,0.493 -1.367,1.145 -1.861,1.945 -0.494,0.803 -0.738,1.795 -0.738,2.979 0,1.524 0.43,2.737 1.288,3.637 0.859,0.899 1.967,1.591 3.318,2.069 1.354,0.48 2.854,0.797 4.5,0.95 1.65,0.157 3.263,0.233 4.842,0.233 L 0,3.93 C 0,5.199 -0.459,6.134 -1.375,6.742 -2.29,7.347 -3.382,7.649 -4.649,7.649 -5.722,7.649 -6.75,7.425 -7.736,6.974 -8.722,6.52 -9.539,5.975 -10.187,5.325 l -2.62,3.086 c 1.156,1.071 2.487,1.876 3.994,2.408 1.508,0.537 3.036,0.804 4.584,0.804 1.805,0 3.293,-0.255 4.46,-0.762 C 1.401,10.352 2.327,9.691 3,8.875 3.678,8.061 4.147,7.143 4.417,6.129 4.685,5.113 4.818,4.099 4.818,3.086 V -9.259 H 0.083 Z" /></g><g
           transform="translate(76.1294,13.3574)"
           id="g66"><path
             id="path68"
             style="fill:#0071bb;fill-opacity:1;fill-rule:nonzero;stroke:none"
             d="M 0,0 -21.805,35.531 -38.339,8.462 h -31.618 c 0.504,-0.855 1.034,-1.691 1.593,-2.504 l 31.409,0.061 15.15,24.666 19.939,-32.493 C -1.225,-1.226 -0.605,-0.617 0,0" /></g><g
           transform="translate(54.3276,34.8271)"
           id="g70"><path
             id="path72"
             style="fill:#0071bb;fill-opacity:1;fill-rule:nonzero;stroke:none"
             d="m 0,0 16.164,-26.341 c 0.696,0.507 1.382,1.024 2.047,1.571 l -18.214,29.682 -13.89,-22.609 -31.015,-0.061 c 0.691,-0.883 1.402,-1.742 2.151,-2.564 h 30.193 z" /></g><g
           transform="translate(54.3247,57.9907)"
           id="g74"><path
             id="path76"
             style="fill:#0071bb;fill-opacity:1;fill-rule:nonzero;stroke:none"
             d="m 0,0 -19.243,-31.373 h -31.368 c 0.379,-0.865 0.784,-1.714 1.218,-2.546 h 31.595 l 17.796,29.128 23.396,-38.125 c 0.585,0.664 1.147,1.341 1.691,2.04 z" /></g><g
           transform="translate(33.8213,28.8716)"
           id="g78"><path
             id="path80"
             style="fill:#0071bb;fill-opacity:1;fill-rule:nonzero;stroke:none"
             d="M 0,0 20.503,33.428 47.031,-9.803 c 5,7.183 7.942,15.912 7.942,25.332 0,24.515 -19.881,44.391 -44.398,44.391 -24.518,0 -44.396,-19.876 -44.396,-44.391 0,-5.466 0.993,-10.698 2.796,-15.529 z" /></g><g
           transform="translate(54.3198,30.5332)"
           id="g82"><path
             id="path84"
             style="fill:#0071bb;fill-opacity:1;fill-rule:nonzero;stroke:none"
             d="m 0,0 -11.301,-18.282 h -29.23 c 7.966,-7.587 18.737,-12.251 30.607,-12.251 8.946,0 17.266,2.652 24.24,7.208 z" /></g></g></g></g></svg>